<?xml version="1.0" encoding="UTF-8"?>
<svg id="Layer_1" data-name="Layer 1" xmlns="http://www.w3.org/2000/svg" viewBox="0 0 1280 976.37">
  <defs>
    <style>
      .cls-1 {
        fill: #7694cc;
      }

      .cls-1, .cls-2, .cls-3, .cls-4, .cls-5, .cls-6 {
        stroke-width: 0px;
      }

      .cls-2 {
        fill: #408740;
      }

      .cls-3 {
        fill: #385597;
      }

      .cls-4 {
        fill: #203365;
      }

      .cls-5 {
        fill: #a6bde2;
      }

      .cls-6 {
        fill: #fff;
      }
    </style>
  </defs>
  <g>
    <path class="cls-6" d="M1127.68,966.66c-5.95,5.65-14.73,9.71-29.42,9.71-19.66,0-31.38-9.2-34.86-25.79-.36.45-.75.93-1.11,1.38-11.57,12.5-30.66,24.4-53.8,24.4-32.22,0-48.18-16.26-48.18-48.18v-106.66h28.16v97.29c0,25.01,12.5,32.52,31.89,32.52,17.52,0,33.48-10.01,41.93-21.28v-108.53h28.13v107.57c0,1.26.02,2.52.03,3.79,0,10.64,5.02,18.45,14.7,18.45,6.58,0,12.53-2.8,15.33-5.92l7.21,21.25Z"/>
    <path class="cls-6" d="M121.99,763.97h-39.1L0,972.61h34.38l16.89-43.16h102.31l16.89,43.16h34.41l-82.89-208.64ZM60.35,901.59l41.93-110.42,42.23,110.42H60.35Z"/>
    <path class="cls-6" d="M392.91,966.66c-5.95,5.65-14.73,9.71-29.42,9.71-19.66,0-31.38-9.2-34.86-25.79-.36.45-.75.93-1.11,1.38-11.57,12.5-30.66,24.4-53.8,24.4-32.22,0-48.18-16.26-48.18-48.18v-106.66h28.16v97.29c0,25.01,12.5,32.52,31.89,32.52,17.52,0,33.48-10.01,41.93-21.28v-108.53h28.13v107.57c0,1.26.02,2.52.03,3.79,0,10.64,5.02,18.45,14.7,18.45,6.58,0,12.53-2.8,15.33-5.92l7.21,21.25Z"/>
    <path class="cls-6" d="M464.19,945.38c-2.82,3.13-8.75,5.95-15.33,5.95-9.71,0-14.7-7.81-14.7-18.45v-86.65h30.66v-24.7h-30.66v-41.3h-28.16v41.3h-25v24.7h25v92.9c0,23.77,12.2,37.24,35.98,37.24,14.7,0,23.47-4.09,29.39-9.71l-7.18-21.28Z"/>
    <path class="cls-6" d="M563.04,817.77c-46.92,0-76.31,35.64-76.31,79.13s29.39,79.46,76.31,79.46,76.34-35.67,76.34-79.46-29.09-79.13-76.34-79.13ZM563.04,951.34c-30.02,0-46.92-25.64-46.92-54.43s16.89-54.1,46.92-54.1,46.92,25.64,46.92,54.1-16.56,54.43-46.92,54.43Z"/>
    <path class="cls-6" d="M773.88,948.51c-42.23,0-74.75-33.45-74.75-80.07s32.52-80.1,74.75-80.1c24.7,0,45.35,12.83,56.32,30.36l26.57-14.07c-16.26-24.4-41.9-44.12-82.89-44.12-59.42,0-106.97,43.79-106.97,107.93s47.55,107.93,106.97,107.93c40.99,0,66.33-19.72,82.89-44.12l-26.57-14.07c-10.97,17.52-31.62,30.33-56.32,30.33Z"/>
    <path class="cls-6" d="M952.82,966.66c-5.95,5.65-14.73,9.71-29.42,9.71-7.33,0-13.55-1.29-18.66-3.76-11.48-5.53-17.31-17.04-17.31-33.48v-175.16h28.16v168.91c0,10.64,5.02,18.45,14.7,18.45,6.58,0,12.53-2.8,15.33-5.92l7.21,21.25Z"/>
    <path class="cls-6" d="M1212.77,817.77c-19.72,0-37.54,9.38-49.44,25.64v-79.43h-28.16v208.64h28.16v-21.58c11.27,15,29.09,25.34,49.44,25.34,39.1,0,67.23-29.72,67.23-79.13s-27.83-79.46-67.23-79.46ZM1205.25,951.34c-17.22,0-34.41-9.71-41.93-21.88v-64.14c7.51-12.2,24.71-22.51,41.93-22.51,28.13,0,45.65,22.81,45.65,54.43s-17.52,54.1-45.65,54.1Z"/>
  </g>
  <g>
    <path class="cls-6" d="M434.66,133.34c177.79-177.79,232.89-177.79,410.68,0,177.79,177.79,177.79,232.89,0,410.68-177.79,177.79-232.89,177.79-410.68,0-177.79-177.79-177.79-232.89,0-410.68Z"/>
    <g>
      <path class="cls-2" d="M648.41,514.46c2.62,0,5.12-.06,7.69-.12-2.19.06-4.44.12-6.69.12h-1Z"/>
      <path class="cls-4" d="M787.84,278.39c1.68,6.53,3,13.38,3.96,20.58.72,5.39-3.06,10.42-8.47,11.05-36.87,4.26-66.48,12.83-84.05,31.43l-.5.5c-27.6,26.1-33.25,78.74-35.37,142.19-.15,4.6-3.87,8.24-8.47,8.36-2.39.07-4.82.09-7.27.09s-4.75-.06-7.18-.12h-1.06c-2.38.06-4.81.12-7.19.12s-4.79-.03-7.15-.09c-4.6-.13-8.32-3.77-8.47-8.37-2.12-63.44-7.77-116.09-35.37-142.19l-.31-.25-.25-.25c-17.57-18.6-47.18-27.17-84.05-31.43-5.4-.62-9.18-5.65-8.47-11.05.96-7.22,2.28-14.1,3.96-20.65,1.06-4.13,4.58-7.19,8.79-7.88,45.13-7.37,91.49-11.16,138.75-11.16s94,3.85,139.38,11.22c4.21.68,7.73,3.75,8.79,7.88Z"/>
      <path class="cls-4" d="M773.58,152.08l-28.32,28.32c-3.8,3.8-9.06,5.35-14.09,4.55-2.43-.4-4.77-1.33-6.89-2.83-52.13-36.49-106.12-38.7-158.39-6.67-4.37,2.61-8.75,5.48-13.03,8.62-2.08,1.55-4.42,2.47-6.8,2.92-5.12.88-10.52-.62-14.4-4.51l-27.97-27.97c-5.26-5.26-5.08-13.83.4-18.86,50.45-46.66,93.18-79.13,135.9-77.94,41.93-1.1,83.9,30.18,133.16,75.46,5.48,5.04,5.74,13.61.44,18.91Z"/>
      <path class="cls-5" d="M481.68,443.99l-28.32,28.32c-5.3,5.3-13.87,5.04-18.91-.44-45.33-49.22-76.61-91.19-75.42-133.21-1.19-41.13,28.98-82.27,72.94-130.38,4.99-5.52,13.65-5.79,18.95-.49l28.63,28.63c3.76,3.76,5.26,8.97,4.46,13.92-.31,2.43-1.19,4.73-2.61,6.85-36.89,54.65-36.18,111.2,1.99,165.81,1.46,2.08,2.39,4.51,2.78,6.94.8,5.04-.71,10.25-4.51,14.05Z"/>
      <path class="cls-1" d="M770.4,546.71c-48.11,43.96-89.25,74.14-130.38,72.94-41.97,1.24-83.99-30.09-133.21-75.42-5.48-5.04-5.74-13.61-.44-18.91l28.32-28.32c3.76-3.76,9.01-5.3,14.01-4.55,2.43.4,4.86,1.33,6.98,2.83,54.61,38.17,111.16,38.88,165.81,1.99,2.12-1.41,4.42-2.3,6.85-2.61,4.95-.79,10.16.71,13.92,4.46l28.63,28.63c5.3,5.3,5.04,13.96-.49,18.95Z"/>
      <path class="cls-3" d="M843.04,474.6c-5.04,5.48-13.61,5.65-18.87.4l-27.97-27.97c-3.89-3.89-5.39-9.28-4.51-14.4.44-2.39,1.37-4.73,2.92-6.8,3.14-4.29,5.96-8.62,8.57-12.9,32.08-52.31,29.87-106.39-6.63-158.52-1.5-2.12-2.43-4.46-2.83-6.89-.8-5.04.75-10.29,4.55-14.09l28.32-28.32c5.3-5.3,13.87-5.04,18.91.44,45.29,49.26,76.65,91.23,75.46,133.16,1.19,42.72-31.33,85.4-77.94,135.9Z"/>
    </g>
  </g>
</svg>