<?xml version="1.0" encoding="UTF-8"?>
<svg id="Layer_1" data-name="Layer 1" xmlns="http://www.w3.org/2000/svg" viewBox="0 0 1280 932.19">
  <defs>
    <style>
      .cls-1 {
        fill: #7694cc;
      }

      .cls-1, .cls-2, .cls-3, .cls-4 {
        stroke-width: 0px;
      }

      .cls-2 {
        fill: #385597;
      }

      .cls-3 {
        fill: #203365;
      }

      .cls-4 {
        fill: #a6bde2;
      }
    </style>
  </defs>
  <g>
    <path class="cls-3" d="M1127.68,922.49c-5.95,5.65-14.73,9.71-29.42,9.71-19.66,0-31.38-9.2-34.86-25.79-.36.45-.75.93-1.11,1.38-11.57,12.5-30.66,24.4-53.8,24.4-32.22,0-48.18-16.26-48.18-48.18v-106.66h28.16v97.29c0,25.01,12.5,32.52,31.89,32.52,17.52,0,33.48-10.01,41.93-21.28v-108.53h28.13v107.57c0,1.26.02,2.52.03,3.79,0,10.64,5.02,18.45,14.7,18.45,6.58,0,12.53-2.8,15.33-5.92l7.21,21.25Z"/>
    <path class="cls-3" d="M121.99,719.8h-39.1L0,928.44h34.38l16.89-43.16h102.31l16.89,43.16h34.41l-82.89-208.64ZM60.35,857.42l41.93-110.42,42.23,110.42H60.35Z"/>
    <path class="cls-3" d="M392.91,922.49c-5.95,5.65-14.73,9.71-29.42,9.71-19.66,0-31.38-9.2-34.86-25.79-.36.45-.75.93-1.11,1.38-11.57,12.5-30.66,24.4-53.8,24.4-32.22,0-48.18-16.26-48.18-48.18v-106.66h28.16v97.29c0,25.01,12.5,32.52,31.89,32.52,17.52,0,33.48-10.01,41.93-21.28v-108.53h28.13v107.57c0,1.26.02,2.52.03,3.79,0,10.64,5.02,18.45,14.7,18.45,6.58,0,12.53-2.8,15.33-5.92l7.21,21.25Z"/>
    <path class="cls-3" d="M464.19,901.21c-2.82,3.13-8.75,5.95-15.33,5.95-9.71,0-14.7-7.81-14.7-18.45v-86.65h30.66v-24.7h-30.66v-41.3h-28.16v41.3h-25v24.7h25v92.9c0,23.77,12.2,37.24,35.98,37.24,14.7,0,23.47-4.09,29.39-9.71l-7.18-21.28Z"/>
    <path class="cls-3" d="M563.04,773.6c-46.92,0-76.31,35.64-76.31,79.13s29.39,79.46,76.31,79.46,76.34-35.67,76.34-79.46-29.09-79.13-76.34-79.13ZM563.04,907.16c-30.02,0-46.92-25.64-46.92-54.43s16.89-54.1,46.92-54.1,46.92,25.64,46.92,54.1-16.56,54.43-46.92,54.43Z"/>
    <path class="cls-3" d="M773.88,904.33c-42.23,0-74.75-33.45-74.75-80.07s32.52-80.1,74.75-80.1c24.7,0,45.35,12.83,56.32,30.36l26.57-14.07c-16.26-24.4-41.9-44.12-82.89-44.12-59.42,0-106.97,43.79-106.97,107.93s47.55,107.93,106.97,107.93c40.99,0,66.33-19.72,82.89-44.12l-26.57-14.07c-10.97,17.52-31.62,30.33-56.32,30.33Z"/>
    <path class="cls-3" d="M952.82,922.49c-5.95,5.65-14.73,9.71-29.42,9.71-7.33,0-13.55-1.29-18.66-3.76-11.48-5.53-17.31-17.04-17.31-33.48v-175.16h28.16v168.91c0,10.64,5.02,18.45,14.7,18.45,6.58,0,12.53-2.8,15.33-5.92l7.21,21.25Z"/>
    <path class="cls-3" d="M1212.77,773.6c-19.72,0-37.54,9.38-49.44,25.64v-79.43h-28.16v208.64h28.16v-21.58c11.27,15,29.09,25.34,49.44,25.34,39.1,0,67.23-29.72,67.23-79.13s-27.83-79.46-67.23-79.46ZM1205.25,907.16c-17.22,0-34.41-9.71-41.93-21.88v-64.14c7.51-12.2,24.71-22.51,41.93-22.51,28.13,0,45.65,22.81,45.65,54.43s-17.52,54.1-45.65,54.1Z"/>
  </g>
  <g>
    <path class="cls-3" d="M794.94,231.32c1.76,6.84,3.15,14.03,4.15,21.57.75,5.65-3.21,10.93-8.88,11.58-38.64,4.47-69.68,13.45-88.09,32.94l-.52.52c-28.92,27.35-34.84,82.53-37.07,149.02-.16,4.82-4.06,8.63-8.88,8.77-2.51.07-5.05.1-7.62.1s-4.98-.07-7.53-.13h-1.11c-2.49.07-5.04.13-7.53.13s-5.02-.03-7.49-.1c-4.82-.13-8.72-3.95-8.88-8.77-2.22-66.49-8.15-121.67-37.07-149.02l-.33-.26-.26-.26c-18.41-19.5-49.45-28.48-88.09-32.94-5.66-.65-9.63-5.92-8.88-11.58,1-7.56,2.39-14.78,4.15-21.64,1.11-4.33,4.8-7.54,9.21-8.26,47.3-7.72,95.89-11.69,145.42-11.69s98.52,4.03,146.07,11.76c4.41.72,8.1,3.93,9.22,8.26Z"/>
    <path class="cls-3" d="M780,98.94l-29.68,29.68c-3.98,3.98-9.49,5.6-14.77,4.77-2.55-.42-5-1.39-7.22-2.96-54.64-38.25-111.22-40.56-166-6.99-4.58,2.73-9.17,5.74-13.66,9.03-2.18,1.62-4.63,2.59-7.13,3.06-5.37.93-11.02-.65-15.09-4.72l-29.31-29.31c-5.51-5.51-5.32-14.49.42-19.77C550.43,32.82,595.2-1.22,639.98.03c43.94-1.16,87.93,31.63,139.56,79.09,5.74,5.28,6.02,14.26.46,19.82Z"/>
    <path class="cls-4" d="M474.07,404.87l-29.68,29.68c-5.56,5.56-14.54,5.28-19.82-.46-47.51-51.58-80.29-95.57-79.04-139.61-1.25-43.11,30.38-86.22,76.45-136.64,5.23-5.79,14.31-6.07,19.86-.51l30,30c3.94,3.94,5.51,9.4,4.68,14.59-.32,2.55-1.25,4.95-2.73,7.18-38.66,57.28-37.92,116.55,2.08,173.78,1.53,2.18,2.5,4.72,2.92,7.27.83,5.28-.74,10.74-4.72,14.72Z"/>
    <path class="cls-1" d="M776.67,512.53c-50.42,46.07-93.53,77.7-136.64,76.45-43.99,1.3-88.02-31.53-139.61-79.04-5.74-5.28-6.02-14.26-.46-19.82l29.68-29.68c3.94-3.94,9.45-5.56,14.68-4.77,2.55.42,5.09,1.39,7.32,2.96,57.23,40.01,116.5,40.75,173.78,2.08,2.22-1.48,4.63-2.41,7.18-2.73,5.19-.83,10.65.74,14.59,4.68l30,30c5.56,5.56,5.28,14.63-.51,19.86Z"/>
    <path class="cls-2" d="M852.79,436.96c-5.28,5.74-14.26,5.93-19.77.42l-29.31-29.31c-4.07-4.07-5.65-9.72-4.72-15.09.46-2.5,1.43-4.96,3.06-7.13,3.29-4.49,6.25-9.03,8.98-13.52,33.62-54.82,31.3-111.5-6.95-166.14-1.58-2.22-2.55-4.68-2.96-7.22-.83-5.28.79-10.79,4.77-14.77l29.68-29.68c5.56-5.56,14.54-5.28,19.82.46,47.46,51.63,80.34,95.62,79.09,139.56,1.25,44.78-32.83,89.51-81.68,142.43Z"/>
  </g>
</svg>