<?xml version="1.0" encoding="UTF-8"?>
<svg id="Layer_1" data-name="Layer 1" xmlns="http://www.w3.org/2000/svg" viewBox="0 0 1280 281.37">
  <defs>
    <style>
      .cls-1 {
        fill: #7694cc;
      }

      .cls-1, .cls-2, .cls-3, .cls-4, .cls-5, .cls-6 {
        stroke-width: 0px;
      }

      .cls-2 {
        fill: #408740;
      }

      .cls-3 {
        fill: #385597;
      }

      .cls-4 {
        fill: #203365;
      }

      .cls-5 {
        fill: #a6bde2;
      }

      .cls-6 {
        fill: #fff;
      }
    </style>
  </defs>
  <g>
    <path class="cls-6" d="M55.39,55.39c73.85-73.85,96.74-73.85,170.59,0,73.85,73.85,73.85,96.74,0,170.59-73.85,73.85-96.74,73.85-170.59,0-73.85-73.85-73.85-96.74,0-170.59Z"/>
    <g>
      <path class="cls-2" d="M144.18,213.7c1.09,0,2.13-.03,3.19-.05-.91.03-1.84.05-2.78.05h-.42Z"/>
      <path class="cls-4" d="M202.09,115.64c.7,2.71,1.25,5.56,1.64,8.55.3,2.24-1.27,4.33-3.52,4.59-15.31,1.77-27.62,5.33-34.91,13.06l-.21.21c-11.46,10.84-13.81,32.71-14.69,59.06-.06,1.91-1.61,3.42-3.52,3.47-.99.03-2,.04-3.02.04s-1.97-.03-2.98-.05h-.44c-.99.03-2,.05-2.99.05s-1.99-.01-2.97-.04c-1.91-.05-3.46-1.56-3.52-3.47-.88-26.35-3.23-48.22-14.69-59.06l-.13-.1-.1-.1c-7.3-7.73-19.6-11.29-34.91-13.06-2.25-.26-3.82-2.35-3.52-4.59.4-3,.95-5.86,1.65-8.58.44-1.72,1.9-2.99,3.65-3.27,18.75-3.06,38-4.63,57.64-4.63s39.05,1.6,57.89,4.66c1.75.28,3.21,1.56,3.65,3.27Z"/>
      <path class="cls-4" d="M196.17,63.17l-11.76,11.76c-1.58,1.58-3.76,2.22-5.85,1.89-1.01-.16-1.98-.55-2.86-1.17-21.66-15.16-44.08-16.08-65.79-2.77-1.82,1.08-3.63,2.28-5.41,3.58-.86.64-1.84,1.03-2.83,1.21-2.13.37-4.37-.26-5.98-1.87l-11.62-11.62c-2.18-2.18-2.11-5.74.17-7.84,20.96-19.38,38.7-32.87,56.45-32.37,17.42-.46,34.85,12.53,55.31,31.35,2.28,2.09,2.39,5.65.18,7.85Z"/>
      <path class="cls-5" d="M74.92,184.43l-11.76,11.76c-2.2,2.2-5.76,2.09-7.85-.18-18.83-20.44-31.82-37.88-31.33-55.33-.5-17.09,12.04-34.17,30.3-54.16,2.07-2.29,5.67-2.4,7.87-.2l11.89,11.89c1.56,1.56,2.18,3.73,1.85,5.78-.13,1.01-.5,1.96-1.08,2.84-15.32,22.7-15.03,46.19.83,68.88.61.86.99,1.87,1.16,2.88.33,2.09-.29,4.26-1.87,5.84Z"/>
      <path class="cls-1" d="M194.85,227.09c-19.99,18.26-37.07,30.79-54.16,30.3-17.43.51-34.89-12.5-55.33-31.33-2.28-2.09-2.39-5.65-.18-7.85l11.76-11.76c1.56-1.56,3.74-2.2,5.82-1.89,1.01.17,2.02.55,2.9,1.17,22.68,15.86,46.17,16.15,68.88.83.88-.59,1.84-.95,2.84-1.08,2.06-.33,4.22.29,5.78,1.85l11.89,11.89c2.2,2.2,2.09,5.8-.2,7.87Z"/>
      <path class="cls-3" d="M225.02,197.14c-2.09,2.28-5.65,2.35-7.84.16l-11.62-11.62c-1.61-1.61-2.24-3.85-1.87-5.98.18-.99.57-1.96,1.21-2.83,1.3-1.78,2.48-3.58,3.56-5.36,13.32-21.73,12.41-44.19-2.75-65.85-.62-.88-1.01-1.85-1.17-2.86-.33-2.09.31-4.28,1.89-5.85l11.76-11.76c2.2-2.2,5.76-2.09,7.85.18,18.81,20.46,31.84,37.9,31.35,55.31.5,17.75-13.01,35.47-32.37,56.45Z"/>
    </g>
  </g>
  <g>
    <g>
      <path class="cls-6" d="M394.08,62.44h-29.31l-62.14,156.42h25.78l12.66-32.36h76.7l12.66,32.36h25.8l-62.14-156.42ZM347.87,165.61l31.43-82.78,31.66,82.78h-63.09Z"/>
      <path class="cls-6" d="M590.92,214.4c-4.46,4.24-11.04,7.28-22.06,7.28-14.74,0-23.52-6.89-26.14-19.33-.27.34-.56.7-.83,1.04-8.68,9.37-22.98,18.3-40.33,18.3-24.15,0-36.12-12.19-36.12-36.12v-79.97h21.11v72.94c0,18.75,9.37,24.38,23.91,24.38,13.14,0,25.1-7.5,31.43-15.95v-81.36h21.09v80.64c0,.95.01,1.89.02,2.84,0,7.98,3.76,13.84,11.02,13.84,4.93,0,9.4-2.1,11.49-4.44l5.41,15.93Z"/>
      <path class="cls-6" d="M650.64,198.44c-2.12,2.34-6.56,4.46-11.49,4.46-7.28,0-11.02-5.86-11.02-13.84v-64.96h22.98v-18.52h-22.98v-30.96h-21.11v30.96h-18.75v18.52h18.75v69.65c0,17.82,9.15,27.92,26.97,27.92,11.02,0,17.6-3.06,22.04-7.28l-5.38-15.95Z"/>
      <path class="cls-6" d="M724.74,102.77c-35.17,0-57.21,26.72-57.21,59.33s22.04,59.58,57.21,59.58,57.23-26.75,57.23-59.58-21.81-59.33-57.23-59.33ZM724.74,202.9c-22.51,0-35.17-19.22-35.17-40.81s12.66-40.56,35.17-40.56,35.17,19.22,35.17,40.56-12.42,40.81-35.17,40.81Z"/>
    </g>
    <g>
      <path class="cls-6" d="M1157.95,214.4c-4.46,4.24-11.04,7.28-22.06,7.28-14.74,0-23.52-6.89-26.14-19.33-.27.34-.56.7-.83,1.04-8.68,9.37-22.98,18.3-40.33,18.3-24.15,0-36.12-12.19-36.12-36.12v-79.97h21.11v72.94c0,18.75,9.37,24.38,23.91,24.38,13.14,0,25.1-7.5,31.43-15.95v-81.36h21.09v80.64c0,.95.01,1.89.02,2.84,0,7.98,3.76,13.84,11.02,13.84,4.93,0,9.4-2.1,11.49-4.44l5.41,15.93Z"/>
      <path class="cls-6" d="M880.84,200.79c-31.66,0-56.04-25.08-56.04-60.03s24.38-60.05,56.04-60.05c18.52,0,34,9.62,42.23,22.76l19.92-10.54c-12.19-18.3-31.41-33.08-62.14-33.08-44.55,0-80.19,32.83-80.19,80.91s35.65,80.91,80.19,80.91c30.73,0,49.73-14.78,62.14-33.08l-19.92-10.54c-8.22,13.14-23.7,22.74-42.23,22.74Z"/>
      <path class="cls-6" d="M1017.9,214.4c-4.46,4.24-11.04,7.28-22.06,7.28-5.5,0-10.16-.97-13.99-2.82-8.61-4.15-12.98-12.78-12.98-25.1V62.44h21.11v126.63c0,7.98,3.76,13.84,11.02,13.84,4.93,0,9.4-2.1,11.49-4.44l5.41,15.93Z"/>
      <path class="cls-6" d="M1229.6,102.77c-14.78,0-28.14,7.03-37.07,19.22v-59.55h-21.11v156.42h21.11v-16.18c8.45,11.24,21.81,18.99,37.07,18.99,29.31,0,50.4-22.28,50.4-59.33s-20.86-59.58-50.4-59.58ZM1223.96,202.9c-12.91,0-25.8-7.28-31.43-16.4v-48.08c5.63-9.15,18.52-16.88,31.43-16.88,21.09,0,34.23,17.1,34.23,40.81s-13.14,40.56-34.23,40.56Z"/>
    </g>
  </g>
</svg>