<?xml version="1.0" encoding="UTF-8"?>
<svg id="Layer_1" data-name="Layer 1" xmlns="http://www.w3.org/2000/svg" viewBox="0 0 1280 251.89">
  <defs>
    <style>
      .cls-1 {
        fill: #7694cc;
      }

      .cls-1, .cls-2, .cls-3, .cls-4 {
        stroke-width: 0px;
      }

      .cls-2 {
        fill: #385597;
      }

      .cls-3 {
        fill: #203365;
      }

      .cls-4 {
        fill: #a6bde2;
      }
    </style>
  </defs>
  <g>
    <path class="cls-3" d="M192.21,98.93c.75,2.93,1.35,6,1.77,9.22.32,2.42-1.37,4.67-3.8,4.95-16.53,1.91-29.8,5.75-37.67,14.09l-.22.22c-12.37,11.7-14.9,35.29-15.85,63.73-.07,2.06-1.74,3.69-3.8,3.75-1.07.03-2.16.04-3.26.04s-2.13-.03-3.22-.06h-.48c-1.06.03-2.16.06-3.22.06s-2.15-.01-3.2-.04c-2.06-.06-3.73-1.69-3.8-3.75-.95-28.44-3.48-52.03-15.85-63.73l-.14-.11-.11-.11c-7.87-8.34-21.15-12.18-37.67-14.09-2.42-.28-4.12-2.53-3.8-4.95.43-3.24,1.02-6.32,1.78-9.26.48-1.85,2.05-3.22,3.94-3.53,20.23-3.3,41.01-5,62.19-5s42.13,1.72,62.47,5.03c1.89.31,3.46,1.68,3.94,3.53Z"/>
    <path class="cls-3" d="M185.82,42.31l-12.69,12.69c-1.7,1.7-4.06,2.4-6.32,2.04-1.09-.18-2.14-.59-3.09-1.27-23.37-16.36-47.57-17.35-70.99-2.99-1.96,1.17-3.92,2.46-5.84,3.86-.93.69-1.98,1.11-3.05,1.31-2.3.4-4.71-.28-6.46-2.02l-12.54-12.54c-2.36-2.36-2.28-6.2.18-8.46C87.64,14.03,106.79-.52,125.94.01c18.79-.49,37.61,13.53,59.69,33.82,2.46,2.26,2.57,6.1.2,8.48Z"/>
    <path class="cls-4" d="M54.99,173.15l-12.69,12.69c-2.38,2.38-6.22,2.26-8.48-.2C13.5,163.58-.52,144.77.02,125.94c-.53-18.44,12.99-36.87,32.69-58.44,2.24-2.47,6.12-2.59,8.5-.22l12.83,12.83c1.68,1.68,2.36,4.02,2,6.24-.14,1.09-.53,2.12-1.17,3.07-16.54,24.5-16.22,49.84.89,74.32.65.93,1.07,2.02,1.25,3.11.36,2.26-.32,4.59-2.02,6.3Z"/>
    <path class="cls-1" d="M184.4,219.19c-21.57,19.7-40,33.23-58.44,32.69-18.81.55-37.64-13.49-59.71-33.8-2.46-2.26-2.57-6.1-.2-8.48l12.69-12.69c1.68-1.68,4.04-2.38,6.28-2.04,1.09.18,2.18.59,3.13,1.27,24.48,17.11,49.82,17.43,74.32.89.95-.63,1.98-1.03,3.07-1.17,2.22-.36,4.56.32,6.24,2l12.83,12.83c2.38,2.38,2.26,6.26-.22,8.5Z"/>
    <path class="cls-2" d="M216.95,186.87c-2.26,2.46-6.1,2.53-8.46.18l-12.54-12.54c-1.74-1.74-2.42-4.16-2.02-6.46.2-1.07.61-2.12,1.31-3.05,1.41-1.92,2.67-3.86,3.84-5.78,14.38-23.45,13.39-47.69-2.97-71.05-.67-.95-1.09-2-1.27-3.09-.36-2.26.34-4.61,2.04-6.32l12.69-12.69c2.38-2.38,6.22-2.26,8.48.2,20.3,22.08,34.36,40.89,33.82,59.69.53,19.15-14.04,38.28-34.93,60.91Z"/>
  </g>
  <g>
    <g>
      <path class="cls-3" d="M367.89,45.39h-30.18l-63.98,161.04h26.54l13.04-33.31h78.97l13.04,33.31h26.56l-63.98-161.04ZM320.31,151.62l32.36-85.23,32.59,85.23h-64.96Z"/>
      <path class="cls-3" d="M570.55,201.84c-4.59,4.36-11.37,7.49-22.71,7.49-15.17,0-24.22-7.1-26.91-19.9-.28.35-.58.72-.86,1.07-8.93,9.65-23.66,18.84-41.53,18.84-24.87,0-37.19-12.55-37.19-37.19v-82.33h21.74v75.09c0,19.3,9.65,25.1,24.61,25.1,13.52,0,25.84-7.73,32.36-16.42v-83.77h21.71v83.03c0,.97.02,1.95.02,2.92,0,8.21,3.87,14.24,11.34,14.24,5.08,0,9.67-2.16,11.83-4.57l5.57,16.4Z"/>
      <path class="cls-3" d="M632.03,185.42c-2.18,2.41-6.75,4.59-11.83,4.59-7.49,0-11.34-6.03-11.34-14.24v-66.88h23.66v-19.07h-23.66v-31.87h-21.74v31.87h-19.3v19.07h19.3v71.71c0,18.35,9.42,28.74,27.77,28.74,11.34,0,18.12-3.15,22.69-7.49l-5.54-16.42Z"/>
      <path class="cls-3" d="M708.33,86.92c-36.21,0-58.9,27.51-58.9,61.08s22.69,61.34,58.9,61.34,58.92-27.54,58.92-61.34-22.46-61.08-58.92-61.08ZM708.33,190.01c-23.17,0-36.21-19.79-36.21-42.01s13.04-41.76,36.21-41.76,36.21,19.79,36.21,41.76-12.78,42.01-36.21,42.01Z"/>
    </g>
    <g>
      <path class="cls-3" d="M1154.34,201.84c-4.59,4.36-11.37,7.49-22.71,7.49-15.17,0-24.22-7.1-26.91-19.9-.28.35-.58.72-.86,1.07-8.93,9.65-23.66,18.84-41.53,18.84-24.87,0-37.19-12.55-37.19-37.19v-82.33h21.74v75.09c0,19.3,9.65,25.1,24.61,25.1,13.52,0,25.84-7.73,32.36-16.42v-83.77h21.71v83.03c0,.97.02,1.95.02,2.92,0,8.21,3.87,14.24,11.34,14.24,5.08,0,9.67-2.16,11.83-4.57l5.57,16.4Z"/>
      <path class="cls-3" d="M869.04,187.83c-32.59,0-57.7-25.82-57.7-61.8s25.1-61.82,57.7-61.82c19.07,0,35.01,9.91,43.47,23.43l20.51-10.86c-12.55-18.84-32.34-34.06-63.98-34.06-45.86,0-82.56,33.8-82.56,83.31s36.7,83.31,82.56,83.31c31.64,0,51.2-15.22,63.98-34.06l-20.51-10.86c-8.47,13.52-24.4,23.41-43.47,23.41Z"/>
      <path class="cls-3" d="M1010.15,201.84c-4.59,4.36-11.37,7.49-22.71,7.49-5.66,0-10.46-1-14.41-2.9-8.86-4.27-13.36-13.15-13.36-25.84V45.39h21.74v130.38c0,8.21,3.87,14.24,11.34,14.24,5.08,0,9.67-2.16,11.83-4.57l5.57,16.4Z"/>
      <path class="cls-3" d="M1228.11,86.92c-15.22,0-28.98,7.24-38.16,19.79v-61.31h-21.74v161.04h21.74v-16.66c8.7,11.58,22.46,19.56,38.16,19.56,30.18,0,51.89-22.94,51.89-61.08s-21.48-61.34-51.89-61.34ZM1222.31,190.01c-13.29,0-26.56-7.49-32.36-16.89v-49.51c5.8-9.42,19.07-17.38,32.36-17.38,21.71,0,35.24,17.61,35.24,42.01s-13.52,41.76-35.24,41.76Z"/>
    </g>
  </g>
</svg>