<?xml version="1.0" encoding="UTF-8"?>
<svg id="Layer_1" data-name="Layer 1" xmlns="http://www.w3.org/2000/svg" viewBox="0 0 1280 1280">
  <defs>
    <style>
      .cls-1 {
        fill: #7694cc;
      }

      .cls-1, .cls-2, .cls-3, .cls-4, .cls-5 {
        stroke-width: 0px;
      }

      .cls-2 {
        fill: #408740;
      }

      .cls-3 {
        fill: #385597;
      }

      .cls-4 {
        fill: #203365;
      }

      .cls-5 {
        fill: #a6bde2;
      }
    </style>
  </defs>
  <path class="cls-2" d="M659.16,1040.35c5.98,0,11.67-.14,17.5-.28-4.98.14-10.1.28-15.23.28h-2.28Z"/>
  <path class="cls-4" d="M976.7,502.68c3.83,14.87,6.84,30.48,9.01,46.87,1.63,12.29-6.98,23.74-19.29,25.17-83.97,9.71-151.42,29.22-191.42,71.59l-1.14,1.14c-62.85,59.44-75.72,179.35-80.55,323.84-.35,10.48-8.82,18.76-19.3,19.05-5.45.15-10.97.21-16.56.21s-10.82-.14-16.36-.28h-2.42c-5.41.14-10.96.28-16.37.28s-10.91-.06-16.27-.21c-10.48-.29-18.94-8.58-19.29-19.05-4.83-144.49-17.7-264.4-80.55-323.84l-.71-.57-.57-.57c-40.01-42.37-107.45-61.88-191.43-71.59-12.31-1.42-20.92-12.87-19.29-25.16,2.18-16.44,5.18-32.12,9.02-47.03,2.42-9.4,10.43-16.38,20.01-17.95,102.79-16.77,208.37-25.41,316.02-25.41s214.1,8.77,317.44,25.56c9.59,1.56,17.6,8.54,20.03,17.95Z"/>
  <path class="cls-4" d="M944.24,215.01l-64.5,64.5c-8.65,8.65-20.63,12.18-32.1,10.36-5.53-.9-10.87-3.02-15.7-6.44-118.74-83.12-241.7-88.15-360.74-15.19-9.96,5.93-19.92,12.48-29.68,19.62-4.73,3.52-10.06,5.63-15.5,6.64-11.67,2.01-23.95-1.41-32.8-10.26l-63.7-63.7c-11.97-11.97-11.57-31.49.91-42.97C445.34,71.32,542.65-2.64,639.95.07c95.49-2.51,191.09,68.73,303.28,171.87,12.48,11.47,13.08,30.99,1.01,43.07Z"/>
  <path class="cls-5" d="M279.41,879.83l-64.5,64.5c-12.07,12.07-31.6,11.47-43.07-1.01C68.61,831.23-2.64,735.64.08,639.95c-2.71-93.68,66.01-187.36,166.13-296.94,11.37-12.58,31.09-13.18,43.17-1.11l65.2,65.2c8.55,8.55,11.98,20.43,10.16,31.7-.7,5.53-2.72,10.77-5.94,15.6-84.02,124.47-82.41,253.27,4.53,377.64,3.32,4.73,5.43,10.26,6.34,15.8,1.81,11.47-1.61,23.35-10.26,32Z"/>
  <path class="cls-1" d="M937,1113.79c-109.58,100.12-203.26,168.85-296.94,166.13-95.59,2.82-191.29-68.52-303.38-171.77-12.48-11.47-13.08-30.99-1.01-43.07l64.5-64.5c8.55-8.55,20.53-12.08,31.9-10.36,5.54.91,11.07,3.02,15.9,6.44,124.37,86.94,253.17,88.55,377.64,4.53,4.83-3.22,10.06-5.23,15.6-5.94,11.27-1.81,23.15,1.61,31.7,10.16l65.2,65.2c12.08,12.08,11.47,31.8-1.11,43.17Z"/>
  <path class="cls-3" d="M1102.42,949.57c-11.47,12.48-30.99,12.88-42.97.9l-63.7-63.7c-8.85-8.85-12.28-21.13-10.26-32.8,1.01-5.43,3.12-10.77,6.64-15.5,7.14-9.76,13.58-19.62,19.52-29.38,73.05-119.14,68.02-242.31-15.09-361.04-3.42-4.83-5.54-10.17-6.44-15.7-1.81-11.47,1.71-23.45,10.36-32.1l64.5-64.5c12.07-12.07,31.6-11.47,43.07,1.01,103.14,112.2,174.58,207.79,171.87,303.28,2.72,97.3-71.34,194.51-177.5,309.52Z"/>
</svg>