<?xml version="1.0" encoding="UTF-8"?>
<svg id="Layer_1" data-name="Layer 1" xmlns="http://www.w3.org/2000/svg" viewBox="0 0 1280 1280">
  <defs>
    <style>
      .cls-1 {
        fill: #7694cc;
      }

      .cls-1, .cls-2, .cls-3, .cls-4, .cls-5, .cls-6 {
        stroke-width: 0px;
      }

      .cls-2 {
        fill: #408740;
      }

      .cls-3 {
        fill: #385597;
      }

      .cls-4 {
        fill: #203365;
      }

      .cls-5 {
        fill: #a6bde2;
      }

      .cls-6 {
        fill: #fff;
      }
    </style>
  </defs>
  <path class="cls-6" d="M251.97,251.97c335.96-335.96,440.09-335.96,776.06,0,335.96,335.96,335.96,440.09,0,776.06-335.96,335.96-440.09,335.96-776.06,0-335.96-335.96-335.96-440.09,0-776.06Z"/>
  <g>
    <path class="cls-2" d="M655.9,972.17c4.96,0,9.68-.12,14.52-.24-4.13.12-8.38.24-12.63.24h-1.89Z"/>
    <path class="cls-4" d="M919.36,526.07c3.18,12.33,5.67,25.29,7.48,38.89,1.35,10.19-5.79,19.7-16.01,20.88-69.67,8.05-125.63,24.25-158.82,59.4l-.94.94c-52.15,49.31-62.83,148.8-66.83,268.69-.29,8.69-7.32,15.57-16.01,15.81-4.52.12-9.1.17-13.74.17s-8.97-.12-13.58-.24h-2.01c-4.49.12-9.09.24-13.58.24s-9.05-.05-13.5-.17c-8.69-.24-15.72-7.12-16.01-15.81-4.01-119.88-14.69-219.37-66.83-268.69l-.59-.47-.47-.47c-33.19-35.15-89.15-51.34-158.83-59.4-10.21-1.18-17.36-10.68-16.01-20.87,1.81-13.64,4.3-26.65,7.49-39.02,2.01-7.8,8.65-13.59,16.6-14.89,85.28-13.92,172.89-21.08,262.2-21.08s177.63,7.27,263.38,21.21c7.96,1.29,14.61,7.08,16.62,14.89Z"/>
    <path class="cls-4" d="M892.43,287.38l-53.52,53.52c-7.18,7.18-17.11,10.1-26.63,8.6-4.59-.75-9.02-2.5-13.02-5.34-98.52-68.96-200.54-73.13-299.3-12.61-8.27,4.92-16.53,10.35-24.63,16.28-3.92,2.92-8.35,4.67-12.86,5.51-9.68,1.67-19.87-1.17-27.22-8.51l-52.85-52.85c-9.93-9.93-9.6-26.13.75-35.65,95.34-88.16,176.08-149.53,256.81-147.27,79.23-2.09,158.54,57.02,251.63,142.6,10.35,9.52,10.85,25.71.83,35.73Z"/>
    <path class="cls-5" d="M340.82,838.99l-53.52,53.52c-10.02,10.02-26.21,9.52-35.73-.83-85.66-93.01-144.77-172.32-142.52-251.72-2.25-77.73,54.77-155.46,137.84-246.37,9.44-10.43,25.8-10.94,35.82-.92l54.1,54.1c7.1,7.1,9.94,16.95,8.43,26.3-.58,4.59-2.25,8.93-4.93,12.94-69.71,103.27-68.38,210.14,3.76,313.33,2.75,3.92,4.51,8.52,5.26,13.11,1.5,9.52-1.34,19.37-8.51,26.55Z"/>
    <path class="cls-1" d="M886.42,1033.1c-90.92,83.07-168.65,140.09-246.37,137.84-79.31,2.34-158.71-56.85-251.72-142.52-10.35-9.52-10.85-25.71-.83-35.73l53.52-53.52c7.1-7.1,17.03-10.02,26.47-8.6,4.59.75,9.18,2.5,13.19,5.34,103.19,72.13,210.06,73.47,313.33,3.76,4.01-2.67,8.35-4.34,12.94-4.93,9.35-1.5,19.2,1.34,26.3,8.43l54.1,54.1c10.02,10.02,9.52,26.38-.92,35.82Z"/>
    <path class="cls-3" d="M1023.67,896.85c-9.52,10.35-25.72,10.69-35.65.75l-52.85-52.85c-7.35-7.35-10.18-17.53-8.51-27.22.84-4.51,2.59-8.93,5.51-12.86,5.93-8.1,11.27-16.28,16.2-24.38,60.61-98.85,56.44-201.04-12.52-299.55-2.84-4.01-4.59-8.43-5.34-13.03-1.5-9.52,1.42-19.45,8.6-26.63l53.52-53.52c10.02-10.02,26.21-9.52,35.73.83,85.58,93.09,144.85,172.4,142.6,251.63,2.25,80.73-59.19,161.38-147.27,256.81Z"/>
  </g>
</svg>